<svg width="433" height="350" viewBox="0 0 433 350" fill="none" xmlns="http://www.w3.org/2000/svg">
	<path d="M348 0C301.128 0 263 37.9033 263 84.5C262.987 96.4276 265.527 108.221 270.453 119.098C283.774 148.49 313.517 169 348 169C370.54 168.988 392.152 160.081 408.09 144.237C424.028 128.393 432.988 106.907 433 84.5C433 37.9033 394.866 0 348 0ZM418.326 118.469C411.907 131.583 401.911 142.64 389.476 150.379C377.042 158.118 362.67 162.228 348 162.24C314.864 162.24 286.474 141.642 275.111 112.649C271.589 103.677 269.788 94.1301 269.8 84.5C269.8 41.6348 304.881 6.76001 348 6.76001C391.119 6.76001 426.2 41.6348 426.2 84.5C426.215 96.2717 423.521 107.891 418.326 118.469V118.469Z" fill="#E6E6E6" />
	<path d="M348.056 170C332.008 169.987 316.291 165.407 302.719 156.788C289.148 148.17 278.276 135.865 271.358 121.294C271.082 120.713 270.962 120.069 271.01 119.427C271.059 118.785 271.274 118.167 271.633 117.634L271.679 117.567C272.038 117.044 272.528 116.624 273.1 116.351C273.671 116.078 274.304 115.961 274.935 116.012C275.565 116.062 276.172 116.279 276.693 116.64C277.214 117.001 277.631 117.494 277.903 118.068C290.757 145.165 318.293 162.674 348.056 162.674C361.657 162.639 375.013 159.027 386.798 152.195C398.583 145.363 408.389 135.55 415.241 123.728C415.56 123.173 416.019 122.712 416.572 122.394C417.125 122.075 417.751 121.909 418.389 121.913C419.019 121.911 419.638 122.079 420.183 122.398C420.728 122.718 421.178 123.177 421.487 123.73L421.526 123.8C421.84 124.358 422.003 124.989 422 125.63C421.997 126.271 421.827 126.899 421.507 127.454C414.01 140.371 403.288 151.093 390.404 158.556C377.521 166.018 362.922 169.964 348.056 170V170Z" fill="#E56353" />
	<path d="M329.174 92.0298C331.483 92.0149 333.727 92.7984 335.521 94.2465C337.315 95.6947 338.549 97.7178 339.011 99.9703C339.473 102.223 339.135 104.565 338.056 106.598C336.976 108.63 335.221 110.227 333.09 111.114C330.959 112.002 328.585 112.127 326.373 111.466C324.16 110.805 322.247 109.401 320.959 107.493C319.671 105.584 319.088 103.29 319.31 101.001C319.533 98.713 320.546 96.5723 322.178 94.9449C323.092 94.0226 324.181 93.2901 325.382 92.7897C326.583 92.2893 327.872 92.031 329.174 92.0298V92.0298ZM329.174 87.8006C326.372 87.7991 323.633 88.6246 321.302 90.1726C318.972 91.7207 317.155 93.9218 316.081 96.4976C315.008 99.0734 314.726 101.908 315.271 104.644C315.816 107.379 317.164 109.892 319.144 111.865C321.124 113.838 323.647 115.182 326.395 115.728C329.143 116.273 331.991 115.995 334.58 114.93C337.169 113.864 339.383 112.058 340.94 109.74C342.498 107.422 343.331 104.697 343.332 101.908C343.334 98.1684 341.844 94.5813 339.188 91.9357C336.533 89.2901 332.931 87.8026 329.174 87.8006H329.174ZM358.689 67.6366C359.971 67.6431 361.202 67.1427 362.113 66.2454C363.024 65.3481 363.539 64.1275 363.545 62.8521C363.546 62.8358 363.546 62.8196 363.545 62.8033C363.551 62.1785 363.434 61.5587 363.199 60.9792C362.964 60.3996 362.617 59.8718 362.178 59.4258C361.738 58.9798 361.214 58.6243 360.637 58.3797C360.059 58.1351 359.439 58.0062 358.811 58.0002C358.78 57.9999 358.75 57.9999 358.72 58.0002C357.436 57.9882 356.2 58.4842 355.283 59.3793C354.367 60.2743 353.845 61.4951 353.833 62.7729C353.821 64.0507 354.32 65.281 355.219 66.1931C356.118 67.1052 357.345 67.6244 358.628 67.6364C358.649 67.6366 358.669 67.6367 358.689 67.6366V67.6366ZM368.842 92.0298C371.151 92.0148 373.395 92.7984 375.189 94.2465C376.983 95.6947 378.216 97.7177 378.679 99.9703C379.141 102.223 378.803 104.565 377.724 106.598C376.644 108.63 374.889 110.227 372.758 111.114C370.627 112.002 368.253 112.127 366.041 111.466C363.828 110.805 361.914 109.401 360.627 107.493C359.339 105.584 358.756 103.29 358.978 101.001C359.201 98.713 360.214 96.5723 361.846 94.9449C362.76 94.0226 363.849 93.2901 365.05 92.7897C366.251 92.2893 367.54 92.031 368.842 92.0298V92.0298ZM368.842 87.8006C366.041 87.8006 363.304 88.6271 360.976 90.1756C358.647 91.724 356.832 93.9249 355.761 96.4999C354.689 99.0749 354.409 101.908 354.955 104.642C355.501 107.376 356.85 109.887 358.83 111.857C360.81 113.828 363.333 115.17 366.079 115.714C368.826 116.258 371.673 115.979 374.26 114.912C376.847 113.846 379.058 112.039 380.614 109.722C382.17 107.405 383 104.68 383 101.893C383 100.042 382.634 98.2097 381.922 96.4999C381.211 94.7902 380.168 93.2367 378.853 91.9281C377.538 90.6195 375.978 89.5815 374.26 88.8733C372.542 88.1651 370.701 87.8006 368.842 87.8006V87.8006Z" fill="#E6E6E6" />
	<path d="M365.568 77.4603H358.283L353.806 68.3977C353.445 67.7622 352.94 67.2186 352.331 66.8097C351.723 66.4009 351.027 66.1379 350.299 66.0414C349.571 65.9449 348.83 66.0176 348.135 66.2538C347.44 66.49 346.809 66.8831 346.293 67.4024L335.411 77.8223C334.521 78.7256 334.015 79.9355 334 81.2C334 83.8238 335.912 84.7588 336.808 85.2865C343.713 89.2373 346.141 89.6746 346.141 91.65V101.587C346.141 102.227 346.397 102.841 346.853 103.293C347.308 103.746 347.926 104 348.57 104C349.214 104 349.831 103.746 350.287 103.293C350.742 102.841 350.998 102.227 350.998 101.587V88.0159C350.998 86.0254 346.384 84.3969 343.668 82.2858L351.089 74.5199C353.927 78.8175 355.232 82.2858 356.856 82.2858H365.568C366.212 82.2868 366.83 82.0336 367.286 81.5818C367.742 81.1301 367.999 80.5168 368 79.877C368.001 79.2371 367.746 78.623 367.292 78.1698C366.837 77.7166 366.22 77.4614 365.576 77.4604H365.568V77.4603Z" fill="#E6E6E6" />
	<path d="M355.147 266.701C352.565 266.701 350.428 274.203 350.014 284.04H300.352C299.938 274.203 297.801 266.701 295.219 266.701C292.342 266.701 290.008 276.016 290.008 287.507C290.008 298.999 292.342 308.314 295.219 308.314C297.801 308.314 299.938 300.812 300.352 290.975H350.014C350.428 300.812 352.565 308.314 355.147 308.314C358.024 308.314 360.358 298.999 360.358 287.507C360.358 276.016 358.024 266.701 355.147 266.701Z" fill="#E6E6E6" />
	<path d="M379.337 256.788C371.976 243.619 360.059 233.58 345.818 228.55C331.576 223.52 315.986 223.845 301.966 229.463C287.947 235.081 276.46 245.608 269.656 259.071C262.852 272.535 261.197 288.013 265.002 302.607C268.807 317.2 277.811 329.909 290.327 338.353C302.843 346.798 318.014 350.398 332.998 348.482C347.983 346.565 361.753 339.261 371.732 327.939C381.71 316.617 387.212 302.052 387.207 286.973C387.204 276.406 384.495 266.015 379.337 256.788V256.788ZM325.084 344.018C310.027 343.941 295.615 337.907 285.01 327.238C274.404 316.569 268.47 302.137 268.509 287.107C268.547 272.077 274.556 257.676 285.217 247.063C295.878 236.449 310.321 230.489 325.378 230.49C340.435 230.491 354.877 236.453 365.537 247.068C376.196 257.683 382.204 272.085 382.241 287.115C382.278 302.145 376.341 316.576 365.734 327.243C355.127 337.91 340.714 343.943 325.658 344.018C325.466 344.019 325.275 344.019 325.084 344.018V344.018Z" fill="#E6E6E6" />
	<path d="M325.114 349.295C313.277 349.301 301.684 345.941 291.691 339.608C291.192 339.29 290.806 338.822 290.591 338.272L290.559 338.191C290.342 337.646 290.307 337.046 290.458 336.479C290.608 335.912 290.938 335.409 291.397 335.043C291.841 334.67 292.393 334.45 292.973 334.415C293.552 334.379 294.127 334.531 294.613 334.846C305.234 341.595 317.801 344.631 330.339 343.476C342.877 342.321 354.675 337.041 363.88 328.466C373.085 319.891 379.175 308.506 381.194 296.1C383.213 283.694 381.046 270.971 375.034 259.928C374.752 259.421 374.641 258.838 374.716 258.264C374.792 257.69 375.05 257.155 375.453 256.738C375.851 256.306 376.377 256.012 376.955 255.902C377.533 255.791 378.131 255.868 378.661 256.122L378.739 256.158C379.271 256.407 379.71 256.818 379.993 257.332C385.139 266.819 387.729 277.478 387.509 288.264C387.289 299.051 384.267 309.595 378.738 318.866C373.209 328.136 365.363 335.814 355.968 341.148C346.573 346.482 335.952 349.29 325.143 349.295H325.114Z" fill="#E56353" />
	<path d="M62.4349 201C54.2754 200.996 46.1951 202.597 38.6556 205.711C31.116 208.826 24.2649 213.392 18.4935 219.149C12.722 224.907 8.14338 231.743 5.01902 239.267C1.89466 246.791 0.285785 254.856 0.284303 263.001C0.282821 271.145 1.88877 279.211 5.01039 286.736C8.13201 294.261 12.7082 301.099 18.4775 306.859C24.2468 312.618 31.0963 317.187 38.6347 320.304C46.1731 323.42 54.2528 325.024 62.4123 325.024H62.4349C62.8376 325.024 63.2319 325.024 63.6347 325.007C80.0039 324.692 95.5868 317.94 106.995 306.218C118.404 294.496 124.715 278.752 124.557 262.41C124.399 246.068 117.784 230.449 106.151 218.949C94.5177 207.45 78.8071 200.999 62.4349 201V201ZM75.0961 318.642C67.2547 320.419 59.1259 320.525 51.2407 318.952C43.3556 317.379 35.8916 314.163 29.3367 309.514C22.7818 304.865 17.2835 298.888 13.2011 291.972C9.11863 285.057 6.54399 277.36 5.64538 269.384C4.74677 261.407 5.54441 253.331 7.98622 245.684C10.428 238.036 14.4591 230.989 19.8158 225.003C25.1725 219.017 31.7344 214.226 39.0726 210.944C46.4109 207.663 54.3603 205.964 62.4013 205.958H62.4349C76.4903 205.957 90.0531 211.127 100.531 220.478C111.01 229.829 117.668 242.707 119.235 256.649C120.801 270.592 117.166 284.622 109.024 296.058C100.881 307.494 88.8025 315.534 75.0961 318.642V318.642Z" fill="#E6E6E6" />
	<path d="M62.4348 325.334C47.0269 325.334 32.1633 319.647 20.703 309.367C9.24272 299.086 1.99536 284.939 0.354989 269.646C-1.28539 254.353 2.79709 238.995 11.8171 226.526C20.8372 214.056 34.1577 205.357 49.2162 202.101C49.5867 202.021 49.9692 202.016 50.3415 202.086L50.4712 202.111C51.0959 202.231 51.6598 202.564 52.0675 203.052C52.4753 203.539 52.702 204.153 52.7094 204.788C52.7168 205.423 52.5045 206.041 52.1082 206.538C51.7119 207.035 51.156 207.381 50.5342 207.516C36.8073 210.454 24.6548 218.358 16.4175 229.706C8.18024 241.053 4.44086 255.042 5.91963 268.978C7.39839 282.914 13.9907 295.811 24.4268 305.184C34.8629 314.557 48.4045 319.745 62.4433 319.746C62.9924 319.741 63.5261 319.739 64.0681 319.723C64.6726 319.698 65.2666 319.886 65.746 320.255C66.2254 320.623 66.5596 321.148 66.69 321.738C66.8332 322.307 66.7697 322.909 66.5108 323.437C66.252 323.964 65.8145 324.383 65.2758 324.619V324.62C64.91 324.787 64.5427 324.951 64.1738 325.112C63.8629 325.25 63.5277 325.324 63.1878 325.33C62.9374 325.334 62.6877 325.334 62.4348 325.334Z" fill="#E56353" />
	<path d="M93.0821 260.375C91.427 260.293 89.7902 260.753 88.4214 261.685C87.0527 262.618 86.0272 263.972 85.5014 265.54H79.3835L74.9169 252.133C74.7513 251.631 74.431 251.193 74.0018 250.883C73.5725 250.573 73.0562 250.406 72.5263 250.406H72.4791C71.9416 250.415 71.4211 250.596 70.9958 250.925C70.5705 251.253 70.2632 251.71 70.12 252.227L63.1213 276.608L54.8959 227.297C54.8005 226.726 54.5112 226.206 54.0767 225.823C53.6422 225.44 53.0889 225.217 52.5097 225.194C51.9305 225.17 51.3607 225.345 50.8959 225.691C50.4312 226.037 50.0998 226.532 49.9575 227.093L41.6219 265.54H32.2798C31.6124 265.54 30.9724 265.805 30.5005 266.276C30.0285 266.747 29.7634 267.386 29.7634 268.052C29.7634 268.718 30.0285 269.357 30.5005 269.828C30.9724 270.3 31.6124 270.564 32.2798 270.564H43.6036C44.1641 270.565 44.7088 270.378 45.1506 270.034C45.5925 269.69 45.9061 269.208 46.0413 268.665L51.9234 240.061L59.9915 288.398C60.0839 288.962 60.3669 289.476 60.7933 289.856C61.2198 290.236 61.7639 290.459 62.3349 290.486H62.4765C63.0233 290.486 63.5552 290.308 63.9919 289.979C64.4287 289.651 64.7469 289.19 64.8985 288.665L72.715 261.411L75.1842 268.837C75.3526 269.338 75.6735 269.774 76.1022 270.083C76.5308 270.393 77.0457 270.561 77.5748 270.564H85.6115C86.092 271.834 86.9073 272.952 87.9713 273.797C89.0354 274.643 90.3085 275.187 91.6563 275.37C93.0041 275.553 94.3765 275.37 95.6284 274.839C96.8803 274.308 97.9652 273.449 98.7686 272.353C99.5719 271.258 100.064 269.966 100.192 268.614C100.321 267.262 100.081 265.901 99.4987 264.674C98.9162 263.447 98.0125 262.4 96.883 261.643C95.7535 260.887 94.4403 260.448 93.082 260.375H93.0821Z" fill="#E6E6E6" />
</svg>
