<svg height="512" viewBox="0 0 380.692 380.692" width="512" xmlns="http://www.w3.org/2000/svg">
	<g>
		<path d="m123.871 216.758 20.277-8.389s-27.373-35.872-11.359-62.538c16.014-26.667-4.554-55.656-4.554-55.656l-30.416 12.583s-3.804 54.588 4.539 76.35c0 0-11.221-33.502-43.632-36.904l-25.963 30.116s41.461.97 55.118 24.414 14.022 29.111 14.022 29.111z" fill="#44c4a1" />
		<path d="m131.416 123.867s-14.378 10.993-14.716 38.82c-.275 22.667 16.085 50.384 16.085 50.384l11.363-4.701s-27.656-43.735-10.186-64.629c0 0 10.228-14.988 9.151-29.952-1.077-14.965-11.697 10.078-11.697 10.078z" fill="#3ea69b" />
		<ellipse cx="115.504" cy="93.56" fill="#3ea69b" rx="34.231" ry="34.23" transform="matrix(.624 -.782 .782 .624 -29.675 125.461)" />
		<ellipse cx="110.637" cy="87.357" fill="#44c4a1" rx="26.346" ry="26.346" transform="matrix(.624 -.782 .782 .624 -26.658 119.324)" />
		<ellipse cx="43.661" cy="139.869" fill="#3ea69b" rx="34.231" ry="34.23" transform="matrix(.624 -.782 .782 .624 -92.89 86.732)" />
		<ellipse cx="38.793" cy="133.666" fill="#44c4a1" rx="26.346" ry="26.346" transform="matrix(.624 -.782 .782 .624 -89.872 80.595)" />
		<ellipse cx="26.473" cy="99.5" fill="#3ea69b" rx="26.472" ry="26.472" transform="matrix(.624 -.782 .782 .624 -67.805 58.115)" />
		<ellipse cx="22.709" cy="94.703" fill="#44c4a1" rx="20.375" ry="20.374" transform="matrix(.624 -.782 .782 .624 -65.472 53.369)" />
		<ellipse cx="83.979" cy="135.971" fill="#3ea69b" rx="23.726" ry="23.726" transform="matrix(.429 -.904 .904 .429 -74.863 153.57)" />
		<ellipse cx="79.712" cy="132.557" fill="#44c4a1" rx="18.261" ry="18.261" transform="matrix(.429 -.904 .904 .429 -74.217 147.763)" />
		<ellipse cx="70.156" cy="85.857" fill="#3ea69b" rx="42.695" ry="42.695" transform="matrix(.624 -.782 .782 .624 -40.712 87.123)" />
		<ellipse cx="64.085" cy="78.12" fill="#44c4a1" rx="32.86" ry="32.86" transform="matrix(.624 -.782 .782 .624 -36.949 79.468)" />
		<path d="m251.585 81.296c-6.439-1.477-13.047-.56-19.355 2.306-11.22 5.098-23.882 5.098-35.102 0-6.307-2.866-12.915-3.783-19.355-2.306-21.776 4.994-33.369 35.46-25.895 68.048 7.474 32.587 31.185 54.956 52.961 49.962 2.01-.461 3.932-1.143 5.759-2.023 2.587-1.245 5.574-1.245 8.161 0 1.828.88 3.749 1.562 5.76 2.023 21.776 4.994 45.487-17.374 52.961-49.962 7.474-32.587-4.119-63.053-25.895-68.048z" fill="#e56353" />
		<path d="m277.477 149.36c-7.485 32.555-31.198 54.943-52.956 49.943-2.02-.464-3.941-1.126-5.763-2.02-2.583-1.258-5.564-1.258-8.147 0-1.854.894-3.775 1.557-5.763 2.02-15.996 3.676-33.052-7.419-43.882-26.462 10.432 12.486 23.878 18.977 36.629 16.029 2.02-.464 3.941-1.159 5.763-2.02 2.583-1.259 5.597-1.259 8.18 0 1.822.861 3.742 1.556 5.763 2.02 21.759 5.001 45.471-17.387 52.956-49.976 4.206-18.447 2.351-36.198-4.04-49.048 11.856 12.287 16.824 35.304 11.26 59.514z" fill="#d15241" />
		<path d="m214.68 88.619c-8.23.183-15.013-3.934-16.08-2.064-1.23 1.655 5.415 10.425 16.08 10.399 10.666.026 17.309-8.744 16.08-10.399-1.068-1.87-7.851 2.247-16.08 2.064z" fill="#d15241" />
		<path d="m226.212 46.757c-20.892 14.02-14.846 43.978-14.772 44.324.333 1.556 1.704 2.621 3.237 2.621.226 0 .456-.023.686-.073 1.789-.377 2.933-2.133 2.558-3.921-.251-1.193-5.147-25.857 11.991-37.415.941-.635 1.55-1.66 1.55-2.795 0-2.69-3.016-4.24-5.25-2.741z" fill="#44c4a1" />
		<path d="m214.68 70.159s-64.344-27.753-83.078 36.773c0 .001 56.183 10.408 83.078-36.773z" fill="#44c4a1" />
		<path d="m214.68 70.159s-55.971-.979-77.076 32.966c-.001.001 18.724-25.655 77.076-32.966z" fill="#3ea69b" />
		<path d="m244.951 96.127c-1.916-3.425.44-7.708 4.364-7.673 3.962.035 8.192 1.165 10.207 5.248 4.353 8.823 8.978 35.483-1.904 53.983-7.467 12.694-15.191 23.851-25.28 29.252-4.825 2.582-9.756-3.234-6.454-7.598 12.639-16.709 32.555-49.098 19.067-73.212z" fill="#ebf0f3" opacity=".15" />
		<path d="m159.482 80.096c-20.892 14.02-14.846 43.978-14.772 44.324.333 1.556 1.704 2.621 3.237 2.621.226 0 .456-.023.686-.073 1.789-.377 2.933-2.133 2.558-3.921-.251-1.193-5.147-25.857 11.991-37.415.941-.635 1.55-1.66 1.55-2.795 0-2.69-3.017-4.24-5.25-2.741z" fill="#44c4a1" />
		<path d="m147.949 103.498s-64.344-27.753-83.078 36.773c.001.001 56.183 10.408 83.078-36.773z" fill="#44c4a1" />
		<circle cx="143.962" cy="176.479" fill="#fcd462" r="66.101" />
		<path d="m295.82 50.778c3.636.44 5.087 4.851 5.735 8.455.565 3.139 1.129 6.278 1.693 9.417.52 2.892 1.316 6.177 3.923 7.534 2.997 1.56 6.838-.521 8.443-3.494s1.608-6.513 1.698-9.891c.22-8.208 2.864-21.231 13.826-20.052 2.349.253 11.851-1.463 19.36 9.428 6.258 9.077-.934 18.014-7.261 23.249-2.603 2.154-5.389 4.339-6.74 7.435-1.351 3.097-.621 7.404 2.455 8.801 2.676 1.216 5.752-.183 8.35-1.557 2.819-1.491 5.638-2.982 8.458-4.473 3.237-1.712 7.605-3.29 10.193-.698 2.561 2.564 1.043 6.882-.611 10.106-1.371 2.671-2.784 5.399-4.971 7.456s-5.337 3.35-8.231 2.548c-.851-.236-1.71-.648-2.576-.477-1.192.235-1.891 1.448-2.872 2.164-2.1 1.532-5.058.571-7.348-.658-.808-.433-1.674-.91-2.583-.793-.906.116-1.64.81-2.13 1.58-1.86 2.925-.564 7.358 2.58 8.819 1.048.487 2.444.925 2.55 2.076.058.627-.334 1.201-.74 1.681-2.412 2.852-6.074 4.607-9.809 4.699-5.473.135-11.387-3.004-16.114-.241-2.419 1.414-3.798 4.043-5.396 6.346-1.598 2.302-3.9 4.553-6.701 4.469-.803-.024-1.569-.396-2.21-.947-.829-.164-1.594-.538-2.108-1.156-1.793-2.154-1.441-5.353-.613-8.031s2.047-5.384 1.669-8.161c-.739-5.425-6.856-8.145-10.125-12.538-2.23-2.997-3.107-6.962-2.349-10.619.128-.616.338-1.279.867-1.62.971-.626 2.177.203 3.207.727 3.089 1.573 7.378-.139 8.534-3.407.305-.861.398-1.866-.069-2.652-.469-.788-1.378-1.176-2.217-1.544-2.38-1.045-4.961-2.781-5.049-5.379-.041-1.214.483-2.513-.067-3.596-.4-.787-1.254-1.21-1.964-1.734-2.416-1.784-3.34-5.06-3.069-8.051.271-2.99 1.547-5.785 2.805-8.511 1.515-3.288 3.979-7.145 7.577-6.71z" fill="#31978c" />
		<path d="m380.196 119.653c-1.664-3.263-6.305-3.108-9.912-2.476-3.142.55-6.283 1.1-9.425 1.65-2.895.507-6.253.89-8.424-1.091-2.496-2.277-1.863-6.6.376-9.13s5.562-3.75 8.702-4.997c7.631-3.031 18.949-9.994 14.07-19.881-1.045-2.118-2.704-11.631-15.514-14.934-10.676-2.753-16.593 7.076-19.331 14.817-1.127 3.185-2.22 6.553-4.663 8.886-2.443 2.334-6.738 3.13-9.109.723-2.062-2.094-1.807-5.464-1.411-8.376.43-3.16.86-6.32 1.29-9.481.494-3.629.472-8.272-2.851-9.811-3.289-1.523-6.821 1.388-9.279 4.051-2.036 2.207-4.111 4.472-5.29 7.233-1.179 2.762-1.309 6.164.44 8.605.514.718 1.196 1.383 1.334 2.255.19 1.2-.709 2.274-1.044 3.441-.716 2.499 1.204 4.945 3.146 6.673.685.609 1.43 1.259 1.634 2.153.203.891-.196 1.818-.751 2.544-2.107 2.753-6.715 3.061-9.169.612-.818-.816-1.71-1.976-2.827-1.68-.608.161-1.012.727-1.324 1.274-1.848 3.246-2.235 7.289-1.037 10.826 1.757 5.186 6.738 9.659 5.77 15.047-.496 2.758-2.489 4.957-4.102 7.25-1.612 2.293-2.933 5.228-1.891 7.829.299.746.912 1.337 1.65 1.749.44.722 1.054 1.312 1.81 1.582 2.639.943 5.522-.489 7.752-2.187 2.229-1.698 4.351-3.774 7.088-4.375 5.348-1.172 10.007 3.635 15.256 5.193 3.581 1.063 7.606.522 10.779-1.448.535-.332 1.084-.757 1.222-1.371.253-1.127-.94-1.974-1.786-2.761-2.54-2.359-2.408-6.975.263-9.185.704-.582 1.616-1.016 2.513-.847.901.169 1.578.89 2.213 1.551 1.8 1.875 4.318 3.701 6.788 2.89 1.154-.379 2.193-1.318 3.399-1.174.877.105 1.567.761 2.304 1.248 2.506 1.654 5.901 1.395 8.615.112 2.715-1.283 4.899-3.443 7.027-5.562 2.572-2.558 5.346-6.199 3.699-9.427z" fill="#3ea69b" />
		<path d="m258.481 62.134c3.577-.786 6.404 2.898 8.206 6.086 1.57 2.776 3.139 5.553 4.709 8.329 1.446 2.558 3.282 5.396 6.191 5.816 3.344.482 6.282-2.75 6.815-6.087s-.634-6.679-1.664-9.896c-2.504-7.82-4.309-20.985 6.427-23.493 2.3-.537 10.702-5.295 21.388 2.504 8.905 6.5 5.068 17.312.826 24.342-1.746 2.893-3.653 5.875-3.905 9.244s1.86 7.193 5.225 7.496c2.927.264 5.369-2.073 7.367-4.228 2.169-2.339 4.337-4.677 6.505-7.016 2.49-2.686 6.091-5.617 9.39-4.026 3.264 1.574 3.258 6.151 2.761 9.741-.412 2.974-.845 6.015-2.23 8.68-1.385 2.664-3.931 4.925-6.927 5.124-.881.058-1.828-.046-2.589.401-1.048.615-1.307 1.991-1.996 2.991-1.476 2.14-4.585 2.21-7.153 1.806-.905-.142-1.881-.306-2.7.104-.817.409-1.28 1.306-1.489 2.195-.789 3.375 1.898 7.131 5.348 7.472 1.15.114 2.612.066 3.093 1.117.262.572.081 1.244-.144 1.831-1.334 3.489-4.212 6.355-7.706 7.675-5.122 1.935-11.74.926-15.289 5.095-1.816 2.134-2.25 5.071-2.997 7.772-.748 2.701-2.177 5.586-4.849 6.432-.766.243-1.612.144-2.399-.164-.837.119-1.683.019-2.372-.394-2.404-1.44-3.128-4.577-3.232-7.378-.103-2.801.154-5.758-1.121-8.254-2.49-4.876-9.162-5.424-13.698-8.489-3.095-2.092-5.232-5.545-5.725-9.247-.083-.624-.103-1.318.283-1.815.71-.912 2.122-.528 3.267-.373 3.435.465 6.918-2.568 6.93-6.035.003-.914-.241-1.893-.941-2.48-.703-.589-1.689-.655-2.603-.725-2.592-.2-5.601-.987-6.542-3.409-.44-1.132-.374-2.531-1.251-3.372-.638-.611-1.583-.728-2.427-.988-2.869-.886-4.824-3.673-5.556-6.585s-.451-5.971-.164-8.96c.347-3.607 1.399-8.061 4.938-8.839z" fill="#44c4a1" />
		<path d="m318.387 169.664c-1.451 3.071-4.56 8.447-8.766 15.111-.952 1.5-1.961 3.074-3.009 4.691-5.599 8.626-12.611 18.777-20.022 28.659-.782 1.052-1.555 2.088-2.354 3.132-17.305 22.652-36.224 42.916-44.707 38.907-5.711-2.699-5.909-16.075-3.434-33.001.083-.692.183-1.376.307-2.069 2.351-15.116 6.682-32.749 11.089-48.092.13-.446.243-.901.389-1.339 4.515-15.657 9.055-28.703 11.503-33.883 7.696-16.286 27.157-23.256 43.443-15.56 16.304 7.705 23.257 27.157 15.561 43.444z" fill="#e69871" />
		<g fill="#f0a67a">
			<path d="m309.621 184.775c-.952 1.5-1.961 3.074-3.009 4.691-6.924-3.699-13.848-7.397-20.789-11.104 7.202.662 14.281 2.443 20.914 5.253.946.406 1.915.762 2.884 1.16z" />
			<path d="m272.692 189.602c-8.499-3.976-16.913-8.175-25.2-12.599.13-.446.243-.901.389-1.339.206.036.437.064.659.068.896.038 1.811-.18 2.709-.06 2.586.329 4.358 3.197 6.966 3.353.313.026.649.002.956.127.356.148.578.496.798.804 3.111 4.373 8.009 7.073 12.723 9.646z" />
			<path d="m286.59 218.125c-.782 1.052-1.555 2.088-2.354 3.132-7.302-3.674-14.627-7.339-21.953-11.004-1.653-.842-3.552-2.024-3.569-3.88 2.175 1.028 4.342 2.072 6.5 3.092.797.377 1.61.761 2.48.725.747-.033 1.422-.344 2.15-.467.9-.143 1.808.042 2.699.219 2.747.547 5.578 1.133 7.92 2.666.792.516 1.52 1.124 2.232 1.766 1.35 1.187 2.642 2.448 3.895 3.751z" />
			<path d="m258.922 237.91-21.191-9.953c-.548-.259-1.096-.518-1.636-.793.083-.692.183-1.376.307-2.069.848.441 1.727.816 2.581 1.2 3.85 1.738 7.455 3.95 11.053 6.178 2.965 1.806 5.921 3.63 8.886 5.437z" />
		</g>
		<path d="m329.361 176.511c-.699 6.947-1.791 13.807-3.233 20.448-.35 1.879-.786 3.758-1.311 5.593-.655 2.884-1.442 5.768-2.316 8.564-1.791 6.161-3.932 12.191-6.379 18.002-24.468 58.636-78.036 99.358-140.167 99.358-62.132 0-115.656-40.722-140.123-99.358-2.447-5.811-4.588-11.841-6.38-18.002-.874-2.796-1.66-5.68-2.315-8.564-.525-1.835-.962-3.714-1.311-5.593-1.442-6.641-2.535-13.501-3.233-20.448z" fill="#ebf0f3" />
		<path d="m221.09 321.004c-14.244 4.85-29.405 7.472-45.135 7.472-62.132 0-115.656-40.722-140.123-99.358-2.447-5.811-4.588-11.841-6.38-18.002-.874-2.796-1.66-5.68-2.315-8.564-.525-1.835-.962-3.714-1.311-5.593-1.442-6.641-2.535-13.501-3.233-20.448h51.558c.611 4.413 1.397 8.826 2.315 13.108.349 1.879.787 3.758 1.31 5.593.656 2.884 1.442 5.768 2.316 8.564 1.792 6.161 3.932 12.191 6.379 18.002 23.726 56.888 74.847 96.91 134.619 99.226z" fill="#d5d6db" opacity=".5" />
		<path d="m214.44 339.73h-78.399c-2.733 0-4.949-2.216-4.949-4.949v-13.667h88.297v13.667c0 2.733-2.216 4.949-4.949 4.949z" fill="#d5d6db" />
		<g fill="#e56353">
			<path d="m326.128 196.959c-.35 1.879-.786 3.758-1.311 5.593h-297.68c-.525-1.835-.962-3.714-1.311-5.593z" />
			<path d="m322.501 211.116c-1.791 6.161-3.932 12.191-6.379 18.002h-280.29c-2.447-5.811-4.588-11.841-6.38-18.002z" />
		</g>
	</g>
</svg>
