<svg height="480pt" viewBox="-24 0 480 480" width="480pt" xmlns="http://www.w3.org/2000/svg">
	<path d="m319.984375 264c57.4375 0 104 46.558594 104 104s-46.5625 104-104 104c-52 0-95.121094-38.160156-102.800781-88-.800782-5.199219-1.199219-10.558594-1.199219-16 0-42.238281 25.199219-78.640625 61.359375-94.878906 13.039062-5.839844 27.441406-9.121094 42.640625-9.121094zm40 144c0-8.800781-7.199219-16-16-16s-16 7.199219-16 16 7.199219 16 16 16 16-7.199219 16-16zm-64-64c0-8.800781-7.199219-16-16-16s-16 7.199219-16 16 7.199219 16 16 16 16-7.199219 16-16zm0 0" fill="#bbd888" />
	<path d="m359.984375 408c0 8.835938-7.164063 16-16 16s-16-7.164062-16-16 7.164063-16 16-16 16 7.164062 16 16zm0 0" fill="#bbd888" />
	<path d="m295.984375 344c0 8.835938-7.164063 16-16 16s-16-7.164062-16-16 7.164063-16 16-16 16 7.164062 16 16zm0 0" fill="#bbd888" />
	<path d="m259.664062 197.121094c6.800782 24.800781 16.640626 50.078125 17.679688 76-36.160156 16.238281-61.359375 52.640625-61.359375 94.878906 0 5.441406.398437 10.800781 1.199219 16-54.878906 36.320312-133.921875 33.519531-180.878906-25.359375-84.402344-105.839844 38.878906-257.28125 122.800781-324 4.316406-3.441406 33.359375-26.640625 41.359375-26.640625-2.160156 0-12.320313 23.761719-13.839844 26.640625-1.519531 2.960937-2.960938 5.917969-4.402344 8.960937-.878906 1.839844-1.679687 3.679688-2.480468 5.519532-14 32-20.878907 69.4375-.398438 100.320312 1.679688 2.480469 19.761719 22.878906 19.761719 23.277344 1.4375-2.558594 6.15625-11.519531 7.359375-14.160156 4.878906-11.117188 8.878906-23.117188 17.757812-31.757813 10.082032-9.839843 25.679688-18.320312 40.242188-16.242187-2 7.203125-6.320313 13.921875-8.242188 21.441406-1.757812 6.960938-2.640625 14.160156-2.800781 21.441406-.316406 14.796875 2.402344 29.4375 6.242187 43.679688zm-84.558593 191.597656c19.597656-20.71875 24.957031-59.117188 15.359375-86.078125-6.882813-19.199219-20.402344-34.640625-33.203125-50.160156-13.039063-15.839844-20.796875-31.519531-29.757813-49.441407-11.519531 17.519532-26.082031 34.882813-36.082031 53.441407-21.679687 40.558593-23.679687 96.558593 8.320313 132.480469 21.121093 23.597656 56 20.238281 75.363281-.242188zm0 0" fill="#ef6a74" />
	<path d="m190.464844 302.640625c9.597656 26.960937 4.238281 65.359375-15.359375 86.078125-19.363281 20.480469-54.242188 23.839844-75.363281.242188-32-35.921876-30-91.921876-8.320313-132.480469 10-18.558594 24.5625-35.921875 36.082031-53.441407 8.960938 17.921876 16.71875 33.601563 29.757813 49.441407 12.800781 15.519531 26.320312 30.960937 33.203125 50.160156zm0 0" fill="#f49d5d" />
	<g fill="#292929">
		<path d="m189.464844 47.023438c1.398437-2.960938 2.796875-5.839844 4.238281-8.65625.390625-.734376 1.296875-2.710938 2.480469-5.304688 1.984375-4.34375 7.039062-15.445312 9.175781-18.742188 1.886719-1.464843 3.105469-3.753906 3.105469-6.320312 0-4.425781-3.578125-8-8-8-3.191406 0-10.6875 0-46.335938 28.375-69.410156 55.183594-143.65625 148.007812-153.074218 230.984375-4.472657 39.457031 5.28125 74.527344 28.992187 104.265625 29.296875 36.726562 69.097656 51.992188 107.914063 51.992188 26.214843 0 51.972656-6.984376 73.757812-19 12.808594 48.246093 57.410156 83.382812 108.265625 83.382812 61.757813 0 112-50.238281 112-112s-50.242187-112-112-112c-12.21875 0-24.136719 1.984375-35.609375 5.832031-2.0625-16.726562-6.925781-32.984375-11.710938-48.792969-1.832031-6.039062-3.648437-12.054687-5.273437-18-4.335937-16.09375-6.230469-29.253906-5.96875-41.421874.160156-6.953126 1.019531-13.570313 2.554687-19.648438.832032-3.257812 2.296876-6.535156 3.839844-10.015625 1.589844-3.554687 3.230469-7.234375 4.351563-11.25.609375-2.214844.238281-4.582031-1.015625-6.511719-1.257813-1.925781-3.28125-3.214844-5.5625-3.542968-18.046875-2.570313-36.09375 7.832031-46.941406 18.421874-8.578126 8.34375-12.953126 18.753907-17.175782 28.816407-.777344 1.832031-1.539062 3.664062-2.296875 5.394531-.296875.65625-.886719 1.839844-1.617187 3.269531-.175782-.207031-.359375-.421875-.542969-.640625-4.03125-4.644531-10.128906-11.679687-11-12.878906-15.792969-23.808594-15.433594-54.992188 1.335937-93.304688.664063-1.558593 1.34375-3.117187 2.113282-4.703124zm-83.753906 336.609374c-31.421876-35.28125-25.785157-88.6875-7.246094-123.359374 6.070312-11.265626 14.152344-22.425782 21.949218-33.203126 2-2.757812 4.027344-5.550781 6.027344-8.367187 6.972656 13.570313 14.085938 26.03125 24.652344 38.855469l2.921875 3.53125c11.839844 14.300781 23.03125 27.8125 28.902344 44.230468 9.066406 25.433594 2.945312 60.375-13.628907 77.894532-8.546874 9.03125-21.121093 14.089844-33.472656 14.167968-11.609375-.144531-22.304687-5.03125-30.105468-13.75zm310.273437-15.632812c0 52.9375-43.066406 96-96 96-46.960937 0-87.761719-34.910156-94.890625-81.222656-.734375-4.761719-1.109375-9.730469-1.109375-14.777344 0-37.753906 22.230469-72.136719 56.640625-87.585938 12.480469-5.582031 25.71875-8.414062 39.359375-8.414062 52.933594 0 96 43.0625 96 96zm-236.480469-337.015625c-1.558594 3.039063-3.039062 6.078125-4.496094 9.152344-.832031 1.71875-1.578124 3.449219-2.601562 5.785156-18.542969 42.390625-18.460938 79.71875.304688 108.007813 1 1.484374 3.921874 4.902343 12.191406 14.453124 3.433594 3.960938 6.554687 7.554688 7.511718 8.769532 1.066407 1.589844 2.691407 2.808594 4.640626 3.3125 3.503906.917968 7.207031-.632813 9-3.808594 1.527343-2.710938 6.367187-11.886719 7.722656-14.863281.820312-1.882813 1.621094-3.792969 2.429687-5.703125 3.777344-8.984375 7.34375-17.480469 13.59375-23.554688 5.503907-5.367187 13.832031-11.054687 22.597657-13.296875-1.496094 3.386719-2.949219 6.90625-3.941407 10.808594-1.832031 7.25-2.859375 15.066406-3.050781 23.234375-.292969 13.734375 1.777344 28.335938 6.519531 45.964844 1.683594 6.121094 3.539063 12.265625 5.410157 18.441406 5.023437 16.617188 10.167968 33.738281 11.632812 50.65625-37.203125 19.03125-60.984375 57.519531-60.984375 99.65625 0 3.992188.277344 7.921875.679687 11.800781-8.03125 4.886719-16.6875 9.0625-25.863281 12.230469 19.167969-22.296875 25.902344-62.015625 15.191407-92.085938-6.832032-19.082031-19.457032-34.320312-31.65625-49.058593l-2.886719-3.503907c-12.296875-14.925781-19.785157-29.902343-28.785157-47.925781-1.28125-2.554687-3.832031-4.242187-6.679687-4.410156-2.960937-.101563-5.59375 1.191406-7.167969 3.585937-4.167968 6.351563-8.753906 12.671876-13.359375 19.046876-8.121093 11.199218-16.503906 22.800781-23.097656 35.015624-20.390625 38.152344-26.601563 96.535157 6.070313 137.433594-17.574219-7.351562-34.0625-19.167968-47.871094-36.480468-20.96875-26.289063-29.582032-57.410157-25.605469-92.480469 8.894531-78.425781 80.300781-167.136719 147.320313-220.425781 6.460937-5.140626 11.964843-9.292969 16.582031-12.628907-.617188 1.351563-1.078125 2.375-1.351563 2.871094zm0 0" />
		<path d="m225.207031 221.929688 1.59375 5.359374c3.542969 11.65625 7.199219 23.71875 9.222657 34.855469l15.753906-2.855469c-2.195313-12.050781-5.992188-24.554687-9.648438-36.59375l-1.59375-5.34375c-1.382812-4.648437-2.777344-9.289062-4.023437-13.871093-1.921875-7.257813-3.28125-13.105469-4.273438-18.390625l-15.71875 2.949218c1.0625 5.679688 2.496094 11.882813 4.535157 19.585938 1.304687 4.765625 2.738281 9.542969 4.152343 14.304688zm0 0" />
		<path d="m269.640625 429.65625 90.34375-90.34375v20.6875h16v-40c0-4.425781-3.578125-8-8-8h-40v16h20.6875l-90.34375 90.34375zm0 0" />
		<path d="m255.984375 344c0 13.230469 10.765625 24 24 24 13.230469 0 24-10.769531 24-24s-10.769531-24-24-24c-13.234375 0-24 10.769531-24 24zm32 0c0 4.414062-3.585937 8-8 8-4.417969 0-8-3.585938-8-8s3.582031-8 8-8c4.414063 0 8 3.585938 8 8zm0 0" />
		<path d="m343.984375 384c-13.234375 0-24 10.769531-24 24s10.765625 24 24 24c13.230469 0 24-10.769531 24-24s-10.769531-24-24-24zm0 32c-4.417969 0-8-3.585938-8-8s3.582031-8 8-8c4.414063 0 8 3.585938 8 8s-3.585937 8-8 8zm0 0" />
		<path d="m319.984375 112v16h-16v16h16v16h16v-16h16v-16h-16v-16zm0 0" />
		<path d="m367.984375 56v24h-24v16h24v24h16v-24h24v-16h-24v-24zm0 0" />
	</g>
</svg>
