<svg width="42" height="38" viewBox="0 0 42 38" fill="none" xmlns="http://www.w3.org/2000/svg">
	<path d="M37.6213 14.25H36.3088V9.5C36.3088 4.26075 31.5996 0 25.8088 0C20.0181 0 15.3088 4.26075 15.3088 9.5V14.25H13.9963C11.8263 14.25 10.0588 15.8476 10.0588 17.8125V34.4375C10.0588 36.4024 11.8263 38 13.9963 38H37.6213C39.7913 38 41.5588 36.4024 41.5588 34.4375V17.8125C41.5588 15.8476 39.7913 14.25 37.6213 14.25ZM18.8088 9.5C18.8088 6.00717 21.9483 3.16667 25.8088 3.16667C29.6693 3.16667 32.8088 6.00717 32.8088 9.5V14.25H18.8088V9.5ZM27.5588 26.4765V30.0833C27.5588 30.9573 26.7766 31.6667 25.8088 31.6667C24.8411 31.6667 24.0588 30.9573 24.0588 30.0833V26.4765C23.0176 25.9271 22.3088 24.9169 22.3088 23.75C22.3088 22.0036 23.8786 20.5833 25.8088 20.5833C27.7391 20.5833 29.3088 22.0036 29.3088 23.75C29.3088 24.9169 28.6001 25.9271 27.5588 26.4765Z" fill="#888888" />
</svg>
